<?xml version="1.0" encoding="utf-8"?>
<!-- Generator: Adobe Illustrator 27.0.1, SVG Export Plug-In . SVG Version: 6.00 Build 0)  -->
<svg version="1.1" id="Layer_1" xmlns="http://www.w3.org/2000/svg" xmlns:xlink="http://www.w3.org/1999/xlink" x="0px" y="0px"
	 viewBox="0 0 59.1 16.2" style="enable-background:new 0 0 59.1 16.2;" xml:space="preserve">
<style type="text/css">
	.st0{fill:#F0F0F0;}
</style>
<g>
	<path class="st0" d="M0,3.9c0-0.8,0.6-1.4,1.6-1.4s1.6,0.6,1.6,1.3c0,0.8-0.6,1.4-1.6,1.4S0,4.7,0,3.9z M0.3,6.1h2.6v7.4H0.3V6.1z"
		/>
	<path class="st0" d="M3.9,12.6l0.9-2c0.8,0.6,2,0.9,3.2,0.9c1.1,0,1.6-0.3,1.6-0.8c0-1.5-5.4-0.4-5.4-4c0-1.7,1.4-3.1,4.2-3.1
		c1.2,0,2.5,0.3,3.5,0.8l-0.8,2c-0.9-0.5-1.8-0.7-2.6-0.7c-1.1,0-1.5,0.4-1.5,0.9c0,1.5,5.4,0.4,5.4,3.9c0,1.7-1.4,3.1-4.2,3.1
		C6.4,13.7,4.8,13.3,3.9,12.6z"/>
	<path class="st0" d="M20.3,9.4v4.1h-2.4v-1c-0.4,0.7-1.1,1.1-2.2,1.1c-1.8,0-2.8-1-2.8-2.3c0-1.4,1-2.2,3.3-2.2h1.5
		c0-0.8-0.5-1.2-1.6-1.2c-0.7,0-1.5,0.2-2,0.6l-0.9-1.8C14.1,6.3,15.3,6,16.5,6C18.9,6,20.3,7,20.3,9.4z M17.7,11.1v-0.6h-1.1
		c-0.8,0-1.1,0.3-1.1,0.8c0,0.4,0.4,0.8,1,0.8C17,12,17.5,11.7,17.7,11.1z"/>
	<path class="st0" d="M29.8,9.3v4.2h-2.6V9.7c0-1.1-0.5-1.5-1.2-1.5c-0.8,0-1.5,0.5-1.5,1.7v3.6h-2.6V6.1h2.5v0.8
		C25,6.3,25.8,6,26.7,6C28.5,6,29.8,7,29.8,9.3z"/>
	<path class="st0" d="M39.4,3.4v10.1h-2.5v-0.7c-0.5,0.6-1.2,0.9-2.2,0.9c-2,0-3.6-1.5-3.6-3.8c0-2.3,1.6-3.8,3.6-3.8
		c0.9,0,1.6,0.2,2,0.8V3.4H39.4z M36.8,9.8c0-1.1-0.7-1.7-1.5-1.7c-0.9,0-1.6,0.6-1.6,1.7c0,1.1,0.7,1.8,1.6,1.8
		C36.2,11.5,36.8,10.9,36.8,9.8z"/>
	<path class="st0" d="M41.1,3.4h2.6v10.1h-2.6V3.4z"/>
	<path class="st0" d="M52.9,10.4h-5.4c0.2,0.8,0.9,1.2,1.8,1.2c0.7,0,1.2-0.2,1.7-0.6l1.4,1.4c-0.7,0.8-1.7,1.2-3.2,1.2
		c-2.6,0-4.3-1.6-4.3-3.8C44.9,7.5,46.6,6,49,6c2.2,0,4,1.4,4,3.8C52.9,10,52.9,10.2,52.9,10.4z M47.5,9.1h3
		c-0.1-0.8-0.7-1.3-1.5-1.3C48.2,7.8,47.6,8.3,47.5,9.1z"/>
	<path class="st0" d="M59.1,6v2.3c-0.2,0-0.4,0-0.6,0c-1.1,0-1.8,0.5-1.8,1.8v3.4h-2.6V6.1h2.5V7C57.1,6.3,58,6,59.1,6z"/>
</g>
</svg>
